<svg width="24" height="24" viewBox="0 0 24 24" fill="none" xmlns="http://www.w3.org/2000/svg">
<path d="M10.875 19.5C10.6354 19.5 10.402 19.4231 10.2094 19.2807C10.1987 19.2732 10.1883 19.2652 10.1784 19.2567L5.895 15.75H2.625C2.32663 15.75 2.04048 15.6315 1.8295 15.4205C1.61853 15.2095 1.5 14.9234 1.5 14.625V9.37503C1.5 9.07666 1.61853 8.79051 1.8295 8.57954C2.04048 8.36856 2.32663 8.25003 2.625 8.25003H5.89453L10.1775 4.74331C10.1874 4.73483 10.1977 4.72685 10.2084 4.71941C10.376 4.59618 10.5744 4.52181 10.7817 4.50455C10.9889 4.4873 11.1969 4.52783 11.3825 4.62166C11.5681 4.71548 11.7241 4.85893 11.8331 5.03605C11.9421 5.21318 11.9999 5.41705 12 5.62503V18.375C12 18.6734 11.8815 18.9595 11.6705 19.1705C11.4595 19.3815 11.1734 19.5 10.875 19.5Z" fill="#FF3D6A"/>
<rect x="13.9268" y="9.23743" width="1.5" height="10" rx="0.75" transform="rotate(-45 13.9268 9.23743)" fill="#FF3D6A"/>
<rect x="20.9978" y="8.17676" width="1.5" height="10" rx="0.75" transform="rotate(45 20.9978 8.17676)" fill="#FF3D6A"/>
</svg>
