<svg width="25" height="25" viewBox="0 0 25 25" fill="none" xmlns="http://www.w3.org/2000/svg">
<path fill-rule="evenodd" clip-rule="evenodd" d="M13.2353 18.6872C13.2353 19.4924 12.3323 19.9674 11.6688 19.5112L1.47059 12.5L11.6688 5.48873C12.3323 5.03257 13.2353 5.50759 13.2353 6.31277L13.2353 12.5V18.6872ZM13.2353 12.5L23.4335 5.48873C24.097 5.03257 25 5.50759 25 6.31277L25 18.6872C25 19.4924 24.097 19.9674 23.4335 19.5112L13.2353 12.5ZM1.47059 12.5L1.47059 19.8529C1.47059 20.259 1.14139 20.5882 0.735295 20.5882C0.329203 20.5882 -3.55017e-08 20.259 0 19.8529L1.28563e-06 5.14704C1.32113e-06 4.74095 0.329204 4.41174 0.735296 4.41174C1.14139 4.41174 1.47059 4.74095 1.47059 5.14704L1.47059 12.5Z" fill="#9E9E9E"/>
</svg>
