<svg width="25" height="25" viewBox="0 0 25 25" fill="none" xmlns="http://www.w3.org/2000/svg">
<path fill-rule="evenodd" clip-rule="evenodd" d="M10.0588 1C10.0588 0.447715 9.61104 0 9.05875 0H3.70581C3.15353 0 2.70581 0.447716 2.70581 1V24C2.70581 24.5523 3.15353 25 3.70581 25H9.05875C9.61104 25 10.0588 24.5523 10.0588 24V1ZM21.8235 1C21.8235 0.447715 21.3757 0 20.8235 0H15.4705C14.9182 0 14.4705 0.447716 14.4705 1V24C14.4705 24.5523 14.9182 25 15.4705 25H20.8235C21.3757 25 21.8235 24.5523 21.8235 24V1Z" fill="#FF3D6A"/>
</svg>
