<svg width="26" height="25" viewBox="0 0 26 25" fill="none" xmlns="http://www.w3.org/2000/svg">
<path fill-rule="evenodd" clip-rule="evenodd" d="M0.529419 6.31277C0.529419 5.50759 1.43245 5.03257 2.09595 5.48873L12.2941 12.5L2.09595 19.5112C1.43245 19.9674 0.529419 19.4924 0.529419 18.6872V6.31277ZM24.0588 12.5L13.8607 19.5112C13.1972 19.9674 12.2941 19.4924 12.2941 18.6872V12.5V6.31277C12.2941 5.50759 13.1972 5.03257 13.8607 5.48873L24.0588 12.5ZM24.0588 12.5V5.14704C24.0588 4.74095 24.388 4.41174 24.7941 4.41174C25.2002 4.41174 25.5294 4.74095 25.5294 5.14704V19.8529C25.5294 20.259 25.2002 20.5882 24.7941 20.5882C24.388 20.5882 24.0588 20.259 24.0588 19.8529V12.5Z" fill="#FF3D6A"/>
</svg>
