<svg width="40" height="40" viewBox="0 0 40 40" fill="none" xmlns="http://www.w3.org/2000/svg">
<path d="M32.475 33.59L22.0383 23.1533C21.205 23.8633 20.2467 24.4128 19.1633 24.8017C18.08 25.1906 16.9911 25.385 15.8967 25.385C13.2278 25.385 10.9689 24.4611 9.12001 22.6133C7.27112 20.7645 6.34668 18.5061 6.34668 15.8383C6.34668 13.1706 7.27001 10.9111 9.11668 9.06001C10.9645 7.20779 13.2222 6.28168 15.89 6.28168C18.5589 6.28168 20.8189 7.20612 22.67 9.05501C24.5211 10.9039 25.4467 13.1633 25.4467 15.8333C25.4467 16.9911 25.2417 18.1117 24.8317 19.195C24.4206 20.2783 23.8817 21.205 23.215 21.975L33.6517 32.41L32.475 33.59ZM15.8967 23.7167C18.1078 23.7167 19.975 22.9556 21.4983 21.4333C23.0206 19.9111 23.7817 18.0439 23.7817 15.8317C23.7817 13.6206 23.0206 11.7539 21.4983 10.2317C19.9761 8.70945 18.1095 7.94834 15.8983 7.94834C13.6872 7.94834 11.82 8.70945 10.2967 10.2317C8.77446 11.7539 8.01335 13.6206 8.01335 15.8317C8.01335 18.0428 8.77446 19.9095 10.2967 21.4317C11.8189 22.9539 13.6856 23.7167 15.8967 23.7167Z" fill="black"/>
</svg>
