<svg width="35" height="35" viewBox="0 0 35 35" fill="none" xmlns="http://www.w3.org/2000/svg">
<path d="M32.0834 17.5C32.0834 25.5541 25.5542 32.0833 17.5001 32.0833C9.44593 32.0833 2.91675 25.5541 2.91675 17.5C2.91675 9.44581 9.44593 2.91663 17.5001 2.91663C25.5542 2.91663 32.0834 9.44581 32.0834 17.5ZM5.10425 17.5C5.10425 24.346 10.6541 29.8958 17.5001 29.8958C24.3461 29.8958 29.8959 24.346 29.8959 17.5C29.8959 10.6539 24.3461 5.10413 17.5001 5.10413C10.6541 5.10413 5.10425 10.6539 5.10425 17.5Z" fill="#FF3D6A"/>
<circle cx="12.3958" cy="12.3959" r="2.1875" fill="#FF3D6A"/>
<circle cx="22.6042" cy="12.3959" r="2.1875" fill="#FF3D6A"/>
<rect x="14.5833" y="17.5" width="5.83333" height="2.91667" rx="1.45833" fill="#FF3D6A"/>
</svg>
