<svg width="24" height="24" viewBox="0 0 24 24" fill="none" xmlns="http://www.w3.org/2000/svg">
<path d="M22 13.963L19.4675 11.4926L21.6401 8.70305L18.2129 7.82736L18.6994 4.32461L15.2939 5.27612L13.961 2L11.491 4.53291L8.70193 2.35994L7.82639 5.7877L4.32423 5.30112L5.27557 8.70638L2 10.0362L4.53249 12.5074L2.35988 15.297L5.78707 16.1726L5.29557 19.6754L8.70027 18.7239L10.0332 22L12.5032 19.4671L15.2922 21.6401L16.1678 18.2123L19.6708 18.7039L18.7194 15.2986L22 13.963ZM13.9035 17.5474C12.8074 17.9203 11.6255 17.9604 10.5067 17.6626C9.38791 17.3648 8.38226 16.7424 7.61647 15.874C6.85069 15.0055 6.35904 13.9298 6.20347 12.7823C6.0479 11.6349 6.23538 10.4671 6.74228 9.426C7.24917 8.38493 8.05281 7.51722 9.05193 6.93218C10.0511 6.34715 11.201 6.07097 12.3567 6.13844C13.5125 6.20592 14.6225 6.61403 15.5468 7.31135C16.4711 8.00868 17.1683 8.96401 17.5507 10.057L17.5631 10.0978C17.7631 10.6636 17.878 11.3151 17.878 11.9942C17.8781 13.2116 17.4994 14.399 16.7946 15.3916C16.0898 16.3842 15.0937 17.133 13.9444 17.5341L13.9035 17.5474Z" fill="#FF3D6A"/>
</svg>
